{"title":"ATP.2012.Monte.Carlo.Final.Djokovic.vs.Nadal.1080i.ts","uid":7209035,"size":6297674384,"categoryP":"video","categoryS":"other","magnet":"?xt=urn:btih:e85e7611fbce56ba9046226e2d9e80f8f9701d49&amp;dn=ATP.2012.Monte.Carlo.Final.Djokovic.vs.Nadal.1080i.ts&amp;tr=udp%3A%2F%2Ftracker.openbittorrent.com%3A80&amp;tr=udp%3A%2F%2Fopen.demonii.com%3A1337&amp;tr=udp%3A%2F%2Ftracker.coppersurfer.tk%3A6969&amp;tr=udp%3A%2F%2Fexodus.desync.com%3A6969","seeders":0,"leechers":0,"uploader":"multi7","files":-1,"time":1335176834,"description":"General\nID                                       : 1 (0x1)\nFormat                                   : MPEG-TS\nFile size                                : 5.87 GiB\nDuration                                 : 1h 29mn\nOverall bit rate                         : 9 422 Kbps\n\nVideo\nID                                       : 169 (0xA9)\nMenu ID                                  : 1 (0x1)\nFormat                                   : AVC\nFormat/Info                              : Advanced Video Codec\nFormat profile                           : &lt;a class=&quot;__cf_email__&quot; href=&quot;/cdn-cgi/l/email-protection&quot; data-cfemail=&quot;2c64454b446c6018021c&quot;&gt;[email&amp;#160;protected]&lt;/a&gt;&lt;script cf-hash='f9e31' type=&quot;text/javascript&quot;&gt;\n/* &lt;![CDATA[ */!function(){try{var t=&quot;currentScript&quot;in document?document.currentScript:function(){for(var t=document.getElementsByTagName(&quot;script&quot;),e=t.length;e--;)if(t[e].getAttribute(&quot;cf-hash&quot;))return t[e]}();if(t&amp;&amp;t.previousSibling){var e,r,n,i,c=t.previousSibling,a=c.getAttribute(&quot;data-cfemail&quot;);if(a){for(e=&quot;&quot;,r=parseInt(a.substr(0,2),16),n=2;a.length-n;n+=2)i=parseInt(a.substr(n,2),16)^r,e+=String.fromCharCode(i);e=document.createTextNode(e),c.parentNode.replaceChild(e,c)}}}catch(u){}}();/* ]]&gt; */&lt;/script&gt;\nFormat settings, CABAC                   : Yes\nFormat settings, ReFrames                : 3 frames\nCodec ID                                 : 27\nDuration                                 : 1h 29mn\nBit rate                                 : 8 762 Kbps\nWidth                                    : 1 920 pixels\nHeight                                   : 1 080 pixels\nDisplay aspect ratio                     : 16:9\nFrame rate                               : 25.000 fps\nStandard                                 : Component\nColor space                              : YUV\nChroma subsampling                       : 4:2:0\nBit depth                                : 8 bits\nScan type                                : Interlaced\nScan order                               : Top Field First\nBits/(Pixel*Frame)                       : 0.169\nStream size                              : 5.45 GiB (93%)\n\nAudio\nID                                       : 449 (0x1C1)\nMenu ID                                  : 1 (0x1)\nFormat                                   : MPEG Audio\nFormat version                           : Version 1\nFormat profile                           : Layer 2\nCodec ID                                 : 3\nDuration                                 : 1h 29mn\nBit rate mode                            : Constant\nBit rate                                 : 192 Kbps\nChannel(s)                               : 2 channels\nSampling rate                            : 48.0 KHz\nCompression mode                         : Lossy\nDelay relative to video                  : -40ms\nStream size                              : 122 MiB (2%)\n","torrent":{"xt":"urn:btih:e85e7611fbce56ba9046226e2d9e80f8f9701d49","amp;dn":"ATP.2012.Monte.Carlo.Final.Djokovic.vs.Nadal.1080i.ts","amp;tr":["udp%3A%2F%2Ftracker.openbittorrent.com%3A80","udp%3A%2F%2Fopen.demonii.com%3A1337","udp%3A%2F%2Ftracker.coppersurfer.tk%3A6969","udp%3A%2F%2Fexodus.desync.com%3A6969"],"infoHash":"e85e7611fbce56ba9046226e2d9e80f8f9701d49","infoHashBuffer":{"type":"Buffer","data":[232,94,118,17,251,206,86,186,144,70,34,110,45,158,128,248,249,112,29,73]},"announce":[],"urlList":[]}}